<svg width="18" height="18" fill="none" xmlns="http://www.w3.org/2000/svg"><path d="M8.559 13.31a1.44 1.44 0 100 2.88 1.44 1.44 0 000-2.88zm0 2.16a.72.72 0 11.72-.72.72.72 0 01-.72.714v.005zm5.269-2.16a1.44 1.44 0 100 2.88 1.44 1.44 0 000-2.88zm0 2.16a.72.72 0 11.72-.72.72.72 0 01-.72.714v.005zm2.147-4.355l1.456-6.502a1.161 1.161 0 00-1.134-1.416H4.945L4.72 2.104a.36.36 0 00-.36-.288H.9a.36.36 0 000 .72h3.175l.223 1.093 1.53 7.479.344 1.672a.36.36 0 00.36.288h10.05a.36.36 0 100-.72H6.818l-.196-.956h9a.36.36 0 00.353-.277zm-9.495-.44L5.092 3.918h11.205a.44.44 0 01.432.54l-1.395 6.219H6.48z" fill="#000"/></svg>