<svg width="18" height="18" fill="none" xmlns="http://www.w3.org/2000/svg"><g clip-path="url(#clip0_1_1651)"><path d="M17.46 9A8.459 8.459 0 002.41 3.696 8.46 8.46 0 008.96 17.46a8.448 8.448 0 005.87-2.34.359.359 0 00.09-.085A8.437 8.437 0 0017.46 9zM9 1.26a7.74 7.74 0 015.738 12.928 6.396 6.396 0 00-3.96-3.271 3.65 3.65 0 10-3.564 0 6.393 6.393 0 00-3.96 3.272A7.666 7.666 0 011.26 9 7.74 7.74 0 019 1.26zm0 9.405a2.93 2.93 0 110-5.861 2.93 2.93 0 010 5.861zm-5.198 4.066a5.712 5.712 0 0110.396 0 7.727 7.727 0 01-10.396 0z" fill="#000"/></g><defs><clipPath id="clip0_1_1651"><path fill="#fff" d="M0 0h18v18H0z"/></clipPath></defs></svg>